<svg xmlns="http://www.w3.org/2000/svg" viewBox="0 0 69.3 61.4"><title>api-hand2</title><circle cx="22.2" cy="5.6" r="5.6" style="fill:#020f14"/><path d="M5.8,13.2C13.8,8.8,22,5,22.4,5.9c.4.8-8.8,7.3-17.6,12.7l1-1.5c-.1.7-.2,1.4-.3,2C4.8,24,4,28.8,3.3,32.6l-.4-1.3c4,5.3,6.5,9.2,6.2,10-.4,1-3.8-2.5-8.8-7.9A2.01584,2.01584,0,0,1,0,32.3v-.1c.4-4.5,1.1-9.9,1.7-15.5a1.94455,1.94455,0,0,1,.9-1.4h.1Z" style="fill:#020f14"/><path d="M67.6,24.8,60.7,46.4c-1.4,4.2-1.5,6-6.1,6.2-16.1,1-32.7,0-48.8,0L12.7,31c1.4-4.2,1.5-6,6.1-6.2C34.9,23.8,51.5,24.8,67.6,24.8Z" style="fill:#ff5037"/><path d="M67.6,24.8,60.7,46.4c-1.4,4.2-1.5,6-6.1,6.2-16.1,1-32.7,0-48.8,0L12.7,31c1.4-4.2,1.5-6,6.1-6.2C34.9,23.8,51.5,24.8,67.6,24.8Z" style="fill:none;stroke:#020f14;stroke-linecap:round;stroke-linejoin:round;stroke-width:2.700000047683716px"/><path d="M67.6,24.8V49.5c0,7.4,2,8.9-3.5,10.6H14.7V52.6" style="fill:none;stroke:#020f14;stroke-linecap:round;stroke-linejoin:round;stroke-width:2.700000047683716px"/><line x1="51.1" y1="33.5" x2="24.1" y2="33.5" style="fill:none;stroke:#020f14;stroke-linecap:round;stroke-linejoin:round;stroke-width:2.700000047683716px"/><line x1="45.3" y1="42.2" x2="25.6" y2="42.2" style="fill:none;stroke:#020f14;stroke-linecap:round;stroke-linejoin:round;stroke-width:2.700000047683716px"/><path d="M28.1,14.9c-3.4-4.3-6.4-8.9-5.6-9.6S29,9.8,33.4,14.6c1.8,1.9,3.4,3.9,4.8,5.6l.2.2a1.31424,1.31424,0,0,1,.3,1.2c-.9,4.3-2,7.4-2.8,7.5-1,.2-1-3.1-.6-8l.4,1.4C33.5,20.4,30.8,17.6,28.1,14.9Z" style="fill:#020f14"/></svg>