<?xml version="1.0" encoding="UTF-8"?><svg id="a" xmlns="http://www.w3.org/2000/svg" viewBox="0 0 600 66"><path id="b" d="m495.02002,63.77h51.95996c8.52997,0,15.44-6.91,15.44-15.44h0c0-8.53-6.91003-15.44-15.44-15.44H16.79c-8.53,0-15.44,6.91-15.44,15.44h0c0,8.53,6.91,15.44,15.44,15.44h478.23002Z" style="fill:none; stroke:#020f14; stroke-linecap:round; stroke-linejoin:round; stroke-width:2.7px;"/><path id="c" d="m594.31,27.51c2.63-2.77,4.25-6.51,4.25-10.63h0c0-8.53-6.91003-15.44-15.44-15.44h-42.80005l-77.73996.61H56.42c-6.78,0-13.27,2.76-17.99,7.64L4.86,38.53" style="fill:none; stroke:#020f14; stroke-linecap:round; stroke-linejoin:round; stroke-width:2.7px;"/><line id="d" x1="594.31" y1="27.51" x2="558.87" y2="58.5" style="fill:none; stroke:#020f14; stroke-linecap:round; stroke-linejoin:round; stroke-width:2.7px;"/><g id="e"><circle cx="546" cy="48.33" r="9.28001" style="fill:#f85e49; stroke:#020f14; stroke-linecap:round; stroke-linejoin:round; stroke-width:2.7px;"/><circle cx="546" cy="48.33" r="2.52001" style="fill:#020f14;"/></g><circle id="f" cx="479.97" cy="48.33" r="2.51999" style="fill:#020f14;"/><circle id="g" cx="215.85999" cy="48.33" r="2.52" style="fill:#020f14;"/><circle id="h" cx="83.8" cy="48.33" r="2.52" style="fill:#020f14;"/><g id="i"><circle cx="17.77" cy="48.33" r="9.28" style="fill:#f85e49; stroke:#020f14; stroke-linecap:round; stroke-linejoin:round; stroke-width:2.7px;"/><circle cx="17.77" cy="48.33" r="2.52" style="fill:#020f14;"/></g><g id="j"><circle cx="413.94" cy="48.33" r="9.28" style="fill:#f85e49; stroke:#020f14; stroke-linecap:round; stroke-linejoin:round; stroke-width:2.7px;"/><circle cx="413.94" cy="48.33" r="2.51999" style="fill:#020f14;"/></g><circle id="k" cx="347.91" cy="48.33" r="2.51999" style="fill:#020f14;"/><g id="l"><circle cx="281.88" cy="48.33" r="9.28" style="fill:#f85e49; stroke:#020f14; stroke-linecap:round; stroke-linejoin:round; stroke-width:2.7px;"/><circle cx="281.88" cy="48.33" r="2.51999" style="fill:#020f14;"/></g><g id="m"><circle cx="149.83" cy="48.33" r="9.28" style="fill:#f85e49; stroke:#020f14; stroke-linecap:round; stroke-linejoin:round; stroke-width:2.7px;"/><circle cx="149.83" cy="48.33" r="2.52" style="fill:#020f14;"/></g></svg>