<?xml version="1.0" encoding="UTF-8"?>
<svg width="240px" height="65px" viewBox="0 0 240 65" version="1.1" xmlns="http://www.w3.org/2000/svg" xmlns:xlink="http://www.w3.org/1999/xlink">
    <!-- Generator: Sketch 60.1 (88133) - https://sketch.com -->
    <title>Group 41</title>
    <desc>Created with Sketch.</desc>
    <defs>
        <polygon id="path-1" points="0 0.639148722 39.1562486 0.639148722 39.1562486 21.9327653 0 21.9327653"></polygon>
        <polygon id="path-3" points="0.490063619 0.345 15.3384911 0.345 15.3384911 34.5075096 0.490063619 34.5075096"></polygon>
        <polygon id="path-5" points="0 0.307434575 32.5342286 0.307434575 32.5342286 22.826087 0 22.826087"></polygon>
    </defs>
    <g id="Design" stroke="none" stroke-width="1" fill="none" fill-rule="evenodd">
        <g id="Home-" transform="translate(-301.000000, -7533.000000)">
            <g id="Final-CTA" transform="translate(206.000000, 6774.000000)">
                <g id="Group-41" transform="translate(95.000000, 759.000000)">
                    <path d="M115.426553,2 C122.448969,4.27051554 129.480178,6.51340203 136.493801,8.81253336 C140.573602,10.1495818 142.319436,10.3390382 142.584193,14.8109966 C143.525987,30.7411152 142.573447,47.0383054 142.573447,63 C135.551031,60.7294845 128.518845,58.486598 121.506199,56.1884534 C117.425421,54.8504182 115.680564,54.6609618 115.415807,50.1890034 C114.474013,34.2598716 115.426553,17.9626814 115.426553,2 Z" id="Stroke-1" stroke="#020F14" stroke-width="2.7" stroke-linecap="round" stroke-linejoin="round"></path>
                    <path d="M116,2.33966812 L140.43954,2.33966812 C147.716793,2.33966812 149.235361,0.414717254 150.939916,5.72980724 C153.325105,13.1670286 150.939916,25.1930908 150.939916,32.98758 C150.939916,39.9923708 150.939916,46.9961854 150.940905,54 L143.489536,54" id="Stroke-3" stroke="#020F14" stroke-width="2.7" stroke-linecap="round" stroke-linejoin="round"></path>
                    <line x1="122" y1="19" x2="137" y2="24" id="Stroke-5" stroke="#020F14" stroke-width="2.7" stroke-linecap="round" stroke-linejoin="round"></line>
                    <line x1="122" y1="27" x2="137" y2="32" id="Stroke-7" stroke="#020F14" stroke-width="2.7" stroke-linecap="round" stroke-linejoin="round"></line>
                    <path d="M45,51.1079761 C44.6568766,56.127368 43.9471614,61.0457641 43.17918,60.9996787 C42.4532797,60.9663402 41.9394039,53.9554686 42.0057627,47.9388659 C42.0810232,41.1113555 42.6450728,34.4093544 43.5223034,34.02106 C44.6746802,33.5170617 44.827629,42.1409241 45,51.1079761" id="Fill-11" fill="#020F14"></path>
                    <path d="M41.6736257,28.1804736 C44.3351247,27.4479873 47.0870913,29.0112084 47.8195872,31.6736453 C48.552083,34.3351095 46.9878687,37.0870401 44.3273425,37.8195264 C41.6648708,38.5520127 38.913877,36.9887916 38.1804083,34.3263547 C37.4479125,31.6648905 39.0121268,28.9129599 41.6736257,28.1804736" id="Fill-13" fill="#020F14"></path>
                    <g id="Group-17" transform="translate(0.000000, 10.000000)">
                        <mask id="mask-2" fill="white">
                            <use xlink:href="#path-1"></use>
                        </mask>
                        <g id="Clip-16"></g>
                        <path d="M38.1823415,12.5508 C31.9569756,14.5578 25.7072195,16.4748 19.4486829,18.3588 C16.3238049,19.3158 13.1930732,20.2518 10.0545366,21.1578 L8.87892683,21.5028 L8.29063415,21.6748 C8.05746341,21.7338 7.79112195,21.8028 7.53843902,21.8468 C6.50819512,22.0178 5.43209756,21.9338 4.43795122,21.5938 C2.44185366,20.9238 0.814536585,19.1868 0.244780488,17.0918 C-0.0391219512,16.0528 -0.0791219512,14.9318 0.140390244,13.8658 C0.367707317,12.8018 0.860390244,11.8068 1.53746341,10.9708 C2.22331707,10.1418 3.11404878,9.4878 4.0964878,9.0768 C4.33843902,8.9798 4.60673171,8.8958 4.83795122,8.8208 L5.42819512,8.6548 L6.60673171,8.3218 L16.0428293,5.6738 L25.5023415,3.1178 C28.6652683,2.3018 31.8203902,1.4578 34.9940488,0.6818 L35.0340488,0.6718 C35.6516098,0.5218 36.2720976,0.9028 36.4399024,1.5238 L39.1140488,11.4818 C39.2857561,12.1228 38.9179512,12.7858 38.2925854,12.9628 C37.6672195,13.1388 37.0203902,12.7618 36.8477073,12.1208 L34.173561,2.1628 L35.618439,3.0048 C32.5042927,4.0028 29.3716098,4.9328 26.2477073,5.8908 L16.8438049,8.6568 L7.4155122,11.3318 L6.236,11.6638 L5.64673171,11.8308 C5.49063415,11.8848 5.36770732,11.9208 5.23112195,11.9748 C4.7062439,12.1968 4.23307317,12.5408 3.86234146,12.9858 C3.12478049,13.8858 2.84673171,15.1328 3.12965854,16.2788 C3.4164878,17.4238 4.27112195,18.3918 5.37746341,18.8008 C5.9257561,19.0008 6.51892683,19.0608 7.10039024,18.9828 C7.24965854,18.9588 7.37941463,18.9258 7.54331707,18.8928 L8.13453659,18.7318 L9.316,18.4108 C12.4662439,17.5438 15.6223415,16.7058 18.7852683,15.8878 C25.1033171,14.2238 31.4291707,12.5928 37.7794146,11.0518 C38.1872195,10.9528 38.596,11.2108 38.6925854,11.6298 C38.7852683,12.0288 38.5569756,12.4288 38.1823415,12.5508" id="Fill-15" fill="#020F14" mask="url(#mask-2)"></path>
                    </g>
                    <path d="M68.5010034,3.05979985 C57.774366,6.20556868 47.2072509,9.25100342 36.5103382,12.1616757 L37.3446102,10.7048641 L40.0594621,20.5002255 L38.5920549,19.6729611 L71.4893222,10.6832234 L70.656041,12.1390514 C69.8128516,9.14771833 69.1549459,6.19671568 68.5010034,3.05979985 M69.6800815,1 C70.8363706,4.39266939 71.9886964,7.97223561 72.9567293,11.5104878 C73.1321048,12.1410187 72.758565,12.7941739 72.1224573,12.9672994 L39.2261809,21.9570372 C38.5910641,22.1311463 37.9331584,21.7603037 37.7587737,21.1297728 L35.042931,11.3344113 C34.8685464,10.7038804 35.2410954,10.0507251 35.8762122,9.87759965 C47.1111412,6.79478555 58.4748771,3.84771756 69.6800815,1" id="Fill-18" fill="#020F14"></path>
                    <path d="M69.9948299,10.9702158 L78.0394041,3.55172206 L78.5912925,5.55685159 C76.7988675,5.22088316 75.0142019,4.84704545 73.2275965,4.48291781 C71.440991,4.1236452 69.6582653,3.74592347 67.8871787,3.30508627 C67.2606059,3.14972514 66.8794246,2.51468654 67.0346129,1.88741599 C67.1830117,1.28927566 67.7707874,0.915437949 68.3682624,1.01642268 C70.1655371,1.32714493 71.9502027,1.69904063 73.7309886,2.08938546 C75.5117745,2.47681727 77.2954701,2.853568 79.0714064,3.267217 L79.0966245,3.27304304 C79.7251371,3.42063611 80.1150478,4.04887766 79.9695587,4.67809022 C79.913303,4.91598695 79.7901223,5.11892742 79.6223249,5.27234653 L71.5777507,12.6898693 C71.1034565,13.1287645 70.3634022,13.0976923 69.9269351,12.6228698 C69.489498,12.1470764 69.5205357,11.407169 69.9948299,10.9702158" id="Fill-20" fill="#020F14"></path>
                    <line x1="79" y1="4.473" x2="81" y2="4" id="Stroke-22" stroke="#020F14" stroke-width="2.409" stroke-linecap="round" stroke-linejoin="round"></line>
                    <line x1="8" y1="25" x2="19" y2="22" id="Stroke-24" stroke="#020F14" stroke-width="2.409" stroke-linecap="round" stroke-linejoin="round"></line>
                    <path d="M25.4088381,10.7860406 C23.9467485,12.234162 22.1071436,13.4018373 21.2811986,12.86848 C20.4980108,12.3677563 21.4584848,9.67445444 22.8361027,7.70521329 C24.3983069,5.47184296 26.4662981,3.60968121 27.5049865,4.07063253 C28.8690473,4.6794554 27.1650142,7.66850036 25.4088381,10.7860406" id="Fill-26" fill="#020F14"></path>
                    <path d="M37.5616777,29.7854349 C40.5813655,31.6525098 43.3609056,33.9071289 42.961624,34.7680018 C42.5903114,35.5874962 37.893448,34.1130117 34.1060593,32.2701583 C29.8094419,30.1780252 25.8291636,27.5651296 26.0056577,26.4499309 C26.2409831,24.9885663 31.7884899,27.3481453 37.5616777,29.7854349" id="Fill-28" fill="#020F14"></path>
                    <g id="Group-32" transform="translate(41.000000, 0.000000)">
                        <mask id="mask-4" fill="white">
                            <use xlink:href="#path-3"></use>
                        </mask>
                        <g id="Clip-31"></g>
                        <path d="M13.1115,22.6465 C8.0415,29.0595 2.6975,35.0765 1.9675,34.4645 C1.3095,33.9365 6.6285,25.3845 12.0165,17.7825 L11.7405,19.3465 C11.5795,18.7505 11.4215,18.1675 11.2645,17.5895 C10.1445,13.3845 9.1235,9.1855 8.3965,5.7575 L9.1505,6.6805 C4.0325,3.7245 0.5365,1.3755 0.4905,0.6125 C0.4415,-0.3235 4.5235,1.2845 10.4905,4.0355 C10.8525,4.2025 11.1075,4.5075 11.2205,4.8605 L11.2555,4.9705 C12.4685,8.8165 13.8445,13.4945 15.2675,18.3755 C15.4205,18.8965 15.3185,19.4315 15.0355,19.8475 L15.0005,19.8985 C14.3815,20.7985 13.7475,21.7215 13.1115,22.6465" id="Fill-30" fill="#020F14" mask="url(#mask-4)"></path>
                    </g>
                    <path d="M100,32.5366181 C99.7167826,32.5859569 99.4444964,32.6232127 99.1851289,32.6473787 C98.9247676,32.6725515 98.6544689,32.6846345 98.3702578,32.6846345 C97.9916408,32.6846345 97.5792366,32.6614755 97.1310575,32.6131436 C96.6818846,32.5658186 96.1750745,32.5406458 95.6086397,32.5406458 L94.3684457,32.5406458 C93.9192728,32.5406458 93.4353189,32.5658186 92.9165839,32.6131436 C92.9165839,33.417668 93.0109897,34.2926764 93.1998013,35.2391757 C93.3876191,36.185675 93.4830186,36.8240585 93.4830186,37.1543264 C93.4830186,38.3857824 92.892734,39 91.7121646,39 C91.6167651,39 91.523353,38.9536819 91.4289472,38.8570182 L91.0751739,38.8570182 C91.0751739,34.5504464 90.7909628,32.397664 90.224528,32.397664 C89.845911,32.397664 89.3987257,32.4892931 88.8789969,32.6735584 C88.3592681,32.8568168 87.8166832,33.0521582 87.2492547,33.2585756 C86.6828199,33.464993 86.1273163,33.6603343 85.5857251,33.8445996 C85.0421465,34.027858 84.5581926,34.1204941 84.1328696,34.1204941 C83.3766294,34.1204941 83,33.7650534 83,33.0511512 C83,32.4812378 83.6956217,32.0180573 85.0898463,31.6616097 C86.4810896,31.3051621 88.2171626,30.8651406 90.2950839,30.3435591 C89.3987257,27.0650467 88.9495528,25.2364906 88.9495528,24.855877 C88.9495528,24.2859636 89.2089203,24 89.7296428,24 C90.3894897,24 90.8148126,24.3433577 91.0036242,25.0290663 C91.1924358,25.7157817 91.3583913,26.4739881 91.4995031,27.3016715 C91.6416087,28.1303618 91.8652014,28.8875613 92.1732624,29.5742767 C92.4793359,30.2599852 93.0815456,30.603343 93.9788975,30.603343 C94.3565207,30.603343 94.8166248,30.5801839 95.3602034,30.5318521 C95.9027883,30.4845271 96.504998,30.4130362 97.1668323,30.3163724 L99.1503478,30.3163724 C99.2914596,30.3163724 99.574677,30.7604216 100,31.6485198 L100,32.5366181 Z" id="Fill-33" fill="#020F14"></path>
                    <path d="M100,32.5366181 C99.7167826,32.5859569 99.4444964,32.6232127 99.1851289,32.6473787 C98.9247676,32.6725515 98.6544689,32.6846345 98.3702578,32.6846345 C97.9916408,32.6846345 97.5792366,32.6614755 97.1310575,32.6131436 C96.6818846,32.5658186 96.1750745,32.5406458 95.6086397,32.5406458 L94.3684457,32.5406458 C93.9192728,32.5406458 93.4353189,32.5658186 92.9165839,32.6131436 C92.9165839,33.417668 93.0109897,34.2926764 93.1998013,35.2391757 C93.3876191,36.185675 93.4830186,36.8240585 93.4830186,37.1543264 C93.4830186,38.3857824 92.892734,39 91.7121646,39 C91.6167651,39 91.523353,38.9536819 91.4289472,38.8570182 L91.0751739,38.8570182 C91.0751739,34.5504464 90.7909628,32.397664 90.224528,32.397664 C89.845911,32.397664 89.3987257,32.4892931 88.8789969,32.6735584 C88.3592681,32.8568168 87.8166832,33.0521582 87.2492547,33.2585756 C86.6828199,33.464993 86.1273163,33.6603343 85.5857251,33.8445996 C85.0421465,34.027858 84.5581926,34.1204941 84.1328696,34.1204941 C83.3766294,34.1204941 83,33.7650534 83,33.0511512 C83,32.4812378 83.6956217,32.0180573 85.0898463,31.6616097 C86.4810896,31.3051621 88.2171626,30.8651406 90.2950839,30.3435591 C89.3987257,27.0650467 88.9495528,25.2364906 88.9495528,24.855877 C88.9495528,24.2859636 89.2089203,24 89.7296428,24 C90.3894897,24 90.8148126,24.3433577 91.0036242,25.0290663 C91.1924358,25.7157817 91.3583913,26.4739881 91.4995031,27.3016715 C91.6416087,28.1303618 91.8652014,28.8875613 92.1732624,29.5742767 C92.4793359,30.2599852 93.0815456,30.603343 93.9788975,30.603343 C94.3565207,30.603343 94.8166248,30.5801839 95.3602034,30.5318521 C95.9027883,30.4845271 96.504998,30.4130362 97.1668323,30.3163724 L99.1503478,30.3163724 C99.2914596,30.3163724 99.574677,30.7604216 100,31.6485198 L100,32.5366181 Z" id="Stroke-35" stroke="#020F14" stroke-linecap="round" stroke-linejoin="round"></path>
                    <path d="M188,36.6881423 C188,36.9682781 187.785552,37.2837995 187.356657,37.6337235 C186.928764,37.9836476 186.546968,38.1595925 186.214273,38.1595925 C186.023876,38.1595925 185.69018,38.0190332 185.214186,37.7388973 C184.738193,37.4587615 184.404496,37.2729872 184.214099,37.1786257 L169.642689,39 C168.6897,38.8594406 168.214709,38.533107 168.214709,38.0190332 C168.214709,37.0380663 168.880098,36.5475829 170.213881,36.5475829 C170.642776,36.5475829 171.201943,36.5947636 171.893386,36.6881423 C172.582825,36.7825038 173.023745,36.8287016 173.214143,36.8287016 C174.785422,36.8287016 176.344676,36.735323 177.892907,36.5475829 C179.440136,36.3618086 180.845068,36.1622733 182.107703,35.9519257 C183.368334,35.742561 184.380446,35.5322134 185.143038,35.3218658 C185.904627,35.1115182 186.286424,34.9601465 186.286424,34.865785 L186.214273,34.865785 C186.643168,34.865785 187.047011,35.0653203 187.428808,35.4614422 C187.809603,35.85953 188,36.2674471 188,36.6881423 M185.999826,29.6817979 C185.999826,30.1968546 185.452684,30.5222053 184.357398,30.6627647 C184.261197,30.6627647 183.868377,30.6745599 183.177937,30.6971674 C182.488498,30.7217407 181.642733,30.7679385 180.642646,30.8377267 C179.642558,30.907515 178.53625,30.9900813 177.321715,31.082477 C176.10718,31.1768385 174.939744,31.2702171 173.82141,31.3635957 C172.702074,31.4569744 171.689962,31.5621482 170.786075,31.6781342 C169.880185,31.7951032 169.213794,31.9238674 168.785901,32.0634438 C167.404017,32.484139 166.595329,32.6944866 166.356832,32.6944866 C165.451943,32.6944866 165,32.368153 165,31.7135198 C165,31.4805647 165.273571,31.2230364 165.821715,30.9429005 C166.368857,30.6627647 167.082346,30.4062193 167.964186,30.1722813 C168.845024,29.9393262 169.833086,29.7407738 170.928372,29.5766241 C172.023658,29.4134572 173.094894,29.3318738 174.143081,29.3318738 L178.929069,29.3318738 C180.737844,29.3318738 182.118726,29.110714 183.071715,28.6654454 C184.023702,28.2221428 184.475645,28 184.428547,28 C185.475732,28.467876 185.999826,29.0281476 185.999826,29.6817979" id="Fill-37" fill="#020F14"></path>
                    <path d="M188,36.6881423 C188,36.9682781 187.785552,37.2837995 187.356657,37.6337235 C186.928764,37.9836476 186.546968,38.1595925 186.214273,38.1595925 C186.023876,38.1595925 185.69018,38.0190332 185.214186,37.7388973 C184.738193,37.4587615 184.404496,37.2729872 184.214099,37.1786257 L169.642689,39 C168.6897,38.8594406 168.214709,38.533107 168.214709,38.0190332 C168.214709,37.0380663 168.880098,36.5475829 170.213881,36.5475829 C170.642776,36.5475829 171.201943,36.5947636 171.893386,36.6881423 C172.582825,36.7825038 173.023745,36.8287016 173.214143,36.8287016 C174.785422,36.8287016 176.344676,36.735323 177.892907,36.5475829 C179.440136,36.3618086 180.845068,36.1622733 182.107703,35.9519257 C183.368334,35.742561 184.380446,35.5322134 185.143038,35.3218658 C185.904627,35.1115182 186.286424,34.9601465 186.286424,34.865785 L186.214273,34.865785 C186.643168,34.865785 187.047011,35.0653203 187.428808,35.4614422 C187.809603,35.85953 188,36.2674471 188,36.6881423 Z M185.999826,29.6817979 C185.999826,30.1968546 185.452684,30.5222053 184.357398,30.6627647 C184.261197,30.6627647 183.868377,30.6745599 183.177937,30.6971674 C182.488498,30.7217407 181.642733,30.7679385 180.642646,30.8377267 C179.642558,30.907515 178.53625,30.9900813 177.321715,31.082477 C176.10718,31.1768385 174.939744,31.2702171 173.82141,31.3635957 C172.702074,31.4569744 171.689962,31.5621482 170.786075,31.6781342 C169.880185,31.7951032 169.213794,31.9238674 168.785901,32.0634438 C167.404017,32.484139 166.595329,32.6944866 166.356832,32.6944866 C165.451943,32.6944866 165,32.368153 165,31.7135198 C165,31.4805647 165.273571,31.2230364 165.821715,30.9429005 C166.368857,30.6627647 167.082346,30.4062193 167.964186,30.1722813 C168.845024,29.9393262 169.833086,29.7407738 170.928372,29.5766241 C172.023658,29.4134572 173.094894,29.3318738 174.143081,29.3318738 L178.929069,29.3318738 C180.737844,29.3318738 182.118726,29.110714 183.071715,28.6654454 C184.023702,28.2221428 184.475645,28 184.428547,28 C185.475732,28.467876 185.999826,29.0281476 185.999826,29.6817979 Z" id="Stroke-39" stroke="#020F14" stroke-linecap="round" stroke-linejoin="round"></path>
                    <g id="Group-8" transform="translate(207.000000, 20.000000)">
                        <path d="M15.4,2.7173913 C15.4,4.2176462 14.1691792,5.43478261 12.65,5.43478261 C11.1308208,5.43478261 9.9,4.2176462 9.9,2.7173913 C9.9,1.21622606 11.1308208,0 12.65,0 C14.1691792,0 15.4,1.21622606 15.4,2.7173913" id="Fill-1" fill="#020F14"></path>
                        <path d="M23.1,2.7173913 C23.1,4.2176462 21.8691792,5.43478261 20.35,5.43478261 C18.831742,5.43478261 17.6,4.2176462 17.6,2.7173913 C17.6,1.21622606 18.831742,0 20.35,0 C21.8691792,0 23.1,1.21622606 23.1,2.7173913" id="Fill-3" fill="#020F14"></path>
                        <g id="Group-7" transform="translate(0.000000, 2.173913)">
                            <mask id="mask-6" fill="white">
                                <use xlink:href="#path-5"></use>
                            </mask>
                            <g id="Clip-6"></g>
                            <path d="M3.927,2.53442609 C4.40785714,4.5696 4.99525714,6.66138261 5.65337143,8.67281739 C6.31902857,10.681513 7.06577143,12.6829043 8.01145714,14.440513 C8.46968571,15.2960348 9.04765714,16.1378609 9.52851429,16.5350348 C9.58414286,16.5779478 9.6294,16.603513 9.67654286,16.645513 L9.99805714,16.8299478 L10.6703143,17.212513 C11.1285429,17.4444261 11.583,17.6882087 12.0534857,17.8899913 C13.9231714,18.7217739 15.9135429,19.2769043 17.9208857,19.4120348 C18.9203143,19.4823391 19.9282286,19.4558609 20.8776857,19.3024696 C21.8884286,19.1499913 22.4975143,18.9208174 23.2263429,18.4003826 C24.6434571,17.3659043 25.7965714,15.6210783 26.6847429,13.7968174 C27.5804571,11.9552087 28.2461143,9.95838261 28.7298,7.93233913 C29.2059429,5.9072087 29.5114286,3.81725217 29.4888,1.81768696 L29.4878571,1.79486087 C29.4793714,0.982252174 30.1516286,0.316643478 30.9907714,0.307434575 C31.8204857,0.299295652 32.5031143,0.937513043 32.5257429,1.73825217 C32.5917429,4.10029565 32.2890857,6.35825217 31.8110571,8.58790435 C31.3207714,10.8129913 30.6400286,13.0006435 29.6575714,15.1207304 C28.6543714,17.2189043 27.4324286,19.3380783 25.2817714,21.0098609 C24.7443429,21.4216435 24.1201714,21.7768174 23.4441429,22.0571217 C22.7247429,22.3456435 22.1137714,22.4716435 21.4707429,22.5903391 C20.2035429,22.8158609 18.9467143,22.8651652 17.7021429,22.7994261 C15.2111143,22.672513 12.7983429,22.0342957 10.5675429,21.0865565 C10.0065429,20.8555565 9.46817143,20.5816435 8.92697143,20.3168609 L8.13591429,19.8840783 L7.72954286,19.6576435 C7.54945714,19.5389478 7.359,19.4147739 7.19494286,19.2878609 C6.54908571,18.7774696 6.12762857,18.2497304 5.73351429,17.7274696 C5.34128571,17.2033826 5.02354286,16.6811217 4.72371429,16.1570348 C3.55362857,14.0634261 2.74277143,11.9570348 1.9932,9.83512174 C1.25494286,7.70407826 0.621342857,5.59768696 0.0584571429,3.39451304 C-0.2046,2.3646 0.444085714,1.32281739 1.50857143,1.06807826 C2.57211429,0.812426087 3.64885714,1.44151304 3.91191429,2.47142609 L3.91757143,2.49425217 L3.927,2.53442609 Z" id="Fill-5" fill="#020F14" mask="url(#mask-6)"></path>
                        </g>
                    </g>
                </g>
            </g>
        </g>
    </g>
</svg>