<?xml version="1.0" encoding="UTF-8"?> <svg xmlns="http://www.w3.org/2000/svg" xmlns:xlink="http://www.w3.org/1999/xlink" width="83px" height="36px" viewBox="0 0 83 36" version="1.1"><!-- Generator: Sketch 61.2 (89653) - https://sketch.com --><title>Group 37</title><desc>Created with Sketch.</desc><g id="Design" stroke="none" stroke-width="1" fill="none" fill-rule="evenodd"><g id="Integrations-Hubspot" transform="translate(-1054.000000, -1023.000000)"><g id="Group-37" transform="translate(1055.000000, 1024.000000)"><path d="M33.3935,16.8719 C33.3935,25.9969 25.9965,33.3929 16.8725,33.3929 C7.7475,33.3929 0.3505,25.9969 0.3505,16.8719 C0.3505,7.7469 7.7475,0.3499 16.8725,0.3499 C25.9965,0.3499 33.3935,7.7469 33.3935,16.8719" id="Fill-1" fill="#FFFFFF"></path><path d="M33.3935,18.4242 C33.3935,26.6922 26.9585,33.3932 19.0205,33.3932 C11.0835,33.3932 4.6485,26.6922 4.6485,18.4242 C4.6485,10.1572 11.0835,3.4552 19.0205,3.4552 C26.9585,3.4552 33.3935,10.1572 33.3935,18.4242" id="Fill-3" fill="#51E5DA"></path><path d="M33.3935,16.8719 C33.3935,25.9969 25.9965,33.3929 16.8725,33.3929 C7.7475,33.3929 0.3505,25.9969 0.3505,16.8719 C0.3505,7.7469 7.7475,0.3499 16.8725,0.3499 C25.9965,0.3499 33.3935,7.7469 33.3935,16.8719 Z" id="Stroke-5" stroke="#020F14" stroke-width="2.7" stroke-linecap="round" stroke-linejoin="round"></path><path d="M33.3935,16.8719 C33.3935,25.9969 25.9965,33.3929 16.8725,33.3929 C7.7475,33.3929 0.3505,25.9969 0.3505,16.8719 C0.3505,7.7469 7.7475,0.3499 16.8725,0.3499 C25.9965,0.3499 33.3935,7.7469 33.3935,16.8719" id="Fill-7" fill="#FFFFFF"></path><path d="M33.3935,18.4242 C33.3935,26.6922 26.9585,33.3932 19.0205,33.3932 C11.0835,33.3932 4.6485,26.6922 4.6485,18.4242 C4.6485,10.1572 11.0835,3.4552 19.0205,3.4552 C26.9585,3.4552 33.3935,10.1572 33.3935,18.4242" id="Fill-9" fill="#51E5DA"></path><path d="M33.3935,16.8719 C33.3935,25.9969 25.9965,33.3929 16.8725,33.3929 C7.7475,33.3929 0.3505,25.9969 0.3505,16.8719 C0.3505,7.7469 7.7475,0.3499 16.8725,0.3499 C25.9965,0.3499 33.3935,7.7469 33.3935,16.8719 Z" id="Stroke-11" stroke="#020F14" stroke-width="2.7" stroke-linecap="round" stroke-linejoin="round"></path><path d="M25.1894,16.8719 C25.1894,21.4659 21.4654,25.1889 16.8724,25.1889 C12.2784,25.1889 8.5544,21.4659 8.5544,16.8719 C8.5544,12.2779 12.2784,8.5539 16.8724,8.5539 C21.4654,8.5539 25.1894,12.2779 25.1894,16.8719 Z" id="Stroke-13" stroke="#020F14" stroke-width="2.7" stroke-linecap="round" stroke-linejoin="round"></path><line x1="8.5541" y1="16.8719" x2="25.1891" y2="16.8719" id="Stroke-15" stroke="#020F14" stroke-width="2.7" stroke-linecap="round" stroke-linejoin="round"></line><line x1="16.872" y1="25.1893" x2="16.872" y2="8.5543" id="Stroke-17" stroke="#020F14" stroke-width="2.7" stroke-linecap="round" stroke-linejoin="round"></line><path d="M79.7621,16.8719 C79.7621,23.9079 74.0581,29.6119 67.0221,29.6119 C59.9861,29.6119 54.2821,23.9079 54.2821,16.8719 C54.2821,9.8359 59.9861,4.1319 67.0221,4.1319 C74.0581,4.1319 79.7621,9.8359 79.7621,16.8719" id="Fill-19" fill="#FFFFFF"></path><path d="M79.7621,18.0687 C79.7621,24.4437 74.8001,29.6117 68.6791,29.6117 C62.5581,29.6117 57.5961,24.4437 57.5961,18.0687 C57.5961,11.6937 62.5581,6.5267 68.6791,6.5267 C74.8001,6.5267 79.7621,11.6937 79.7621,18.0687" id="Fill-21" fill="#51E5DA"></path><path d="M79.7621,16.8719 C79.7621,23.9079 74.0581,29.6119 67.0221,29.6119 C59.9861,29.6119 54.2821,23.9079 54.2821,16.8719 C54.2821,9.8359 59.9861,4.1319 67.0221,4.1319 C74.0581,4.1319 79.7621,9.8359 79.7621,16.8719 Z" id="Stroke-23" stroke="#020F14" stroke-width="1.866" stroke-linecap="round" stroke-linejoin="round"></path><path d="M79.7621,16.8719 C79.7621,23.9079 74.0581,29.6119 67.0221,29.6119 C59.9861,29.6119 54.2821,23.9079 54.2821,16.8719 C54.2821,9.8359 59.9861,4.1319 67.0221,4.1319 C74.0581,4.1319 79.7621,9.8359 79.7621,16.8719" id="Fill-25" fill="#FFFFFF"></path><path d="M79.7621,18.0687 C79.7621,24.4437 74.8001,29.6117 68.6791,29.6117 C62.5581,29.6117 57.5961,24.4437 57.5961,18.0687 C57.5961,11.6937 62.5581,6.5267 68.6791,6.5267 C74.8001,6.5267 79.7621,11.6937 79.7621,18.0687" id="Fill-27" fill="#51E5DA"></path><path d="M79.7621,16.8719 C79.7621,23.9079 74.0581,29.6119 67.0221,29.6119 C59.9861,29.6119 54.2821,23.9079 54.2821,16.8719 C54.2821,9.8359 59.9861,4.1319 67.0221,4.1319 C74.0581,4.1319 79.7621,9.8359 79.7621,16.8719 Z" id="Stroke-29" stroke="#020F14" stroke-width="2.7" stroke-linecap="round" stroke-linejoin="round"></path><path d="M73.436,16.8719 C73.436,20.4139 70.564,23.2859 67.022,23.2859 C63.48,23.2859 60.608,20.4139 60.608,16.8719 C60.608,13.3299 63.48,10.4579 67.022,10.4579 C70.564,10.4579 73.436,13.3299 73.436,16.8719 Z" id="Stroke-31" stroke="#020F14" stroke-width="2.7" stroke-linecap="round" stroke-linejoin="round"></path><line x1="16.872" y1="0.35" x2="67.022" y2="4.132" id="Stroke-33" stroke="#020F14" stroke-width="2.7" stroke-linecap="round" stroke-linejoin="round"></line><line x1="16.872" y1="33.3934" x2="67.022" y2="29.6114" id="Stroke-35" stroke="#020F14" stroke-width="2.7" stroke-linecap="round" stroke-linejoin="round"></line></g></g></g></svg> 